#!OML:ASF E:\acrobat2\Project_11_07_03\Capture day 1\Session 1\Acrobat.ASF
:FULLY-SPECIFIED
:DEGREES
147
root 8.33093 17.9621 -27.7268 6.49779 -86.9842 0.512126
lowerback -7.58789 0.810193 1.65212
upperback -5.60359 0.803367 -0.684973
thorax -1.50254 0.26768 -1.58102
lowerneck -1.06859 -1.81122 -0.347194
upperneck 0.545176 -2.44836 3.02055
head 0.386165 -1.21515 0.962504
rclavicle -9.60378e-015 4.87022e-015
rhumerus -6.78626 -26.1091 -1.15991
rradius 20.6135
rwrist 18.909
rhand -7.92148 -44.9134
rfingers 7.12502
rthumb 17.9844 -74.1019
lclavicle -9.60378e-015 4.87022e-015
lhumerus 0.871127 10.49 -1.37605
lradius 21.0691
lwrist 11.1363
lhand -6.93297 -4.73227
lfingers 7.12502
lthumb 18.9353 24.3661
rfemur 7.50832 19.3356 12.3691
rtibia -3.84132
rfoot -30.6616 -31.6454
rtoes 6.78389
lfemur 5.97646 -10.1209 -6.8514
ltibia -3.55906
lfoot -28.9619 6.14184
ltoes 39.6733
148
root 8.33334 17.9625 -27.7312 8.20726 -86.8897 -1.20591
lowerback -7.56365 0.769097 1.74011
upperback -5.59538 0.745178 -0.647136
thorax -1.50922 0.237043 -1.59519
lowerneck -1.11076 -1.77965 -0.366945
upperneck 0.482995 -2.4047 3.03605
head 0.373858 -1.19354 0.970845
rclavicle 5.46658e-015 -2.88238e-015
rhumerus -6.64507 -26.5386 -1.25871
rradius 20.5441
rwrist 19.1993
rhand -7.95029 -44.8515
rfingers 7.12502
rthumb 17.9567 -74.0425
lclavicle 5.46658e-015 -2.88238e-015
lhumerus 0.740872 10.2742 -1.49139
lradius 21.1734
lwrist 11.7795
lhand -6.93959 -4.80426
lfingers 7.12502
lthumb 18.9289 24.2947
rfemur 7.54635 19.4099 12.5737
rtibia -3.83417
rfoot -30.8403 -31.7489
rtoes 7.14767
lfemur 5.89969 -9.86021 -6.64258
ltibia -3.48593
lfoot -28.629 6.05531
ltoes 39.6051
149
root 8.3315 17.9626 -27.7307 8.65415 -86.876 -1.70793
lowerback -7.54043 0.802241 1.82902
upperback -5.56913 0.785993 -0.689334
thorax -1.49164 0.255347 -1.68619
lowerneck -1.15992 -1.81266 -0.381247
upperneck 0.506542 -2.45068 3.11291
head 0.391454 -1.21578 0.99629
rclavicle 1.10574e-015 -6.36111e-015
rhumerus -6.78517 -26.2952 -1.21705
rradius 20.6069
rwrist 18.9207
rhand -8.02507 -44.976
rfingers 7.12502
rthumb 17.8847 -74.1737
lclavicle 1.10574e-015 -6.36111e-015
lhumerus 0.812478 10.1959 -1.56562
lradius 21.2218
lwrist 11.9524
lhand -6.80254 -4.76843
lfingers 7.12502
lthumb 19.0607 24.3176
rfemur 7.60022 19.3423 12.5996
rtibia -3.8264
rfoot -30.7674 -31.6863
rtoes 6.98962
lfemur 5.99109 -10.0089 -6.65502
ltibia -3.53342
lfoot -28.8402 5.941
ltoes 40.1324
150
root 8.32886 17.9623 -27.7307 7.85837 -86.8775 -0.942764
lowerback -7.53856 0.841478 1.81999
upperback -5.55654 0.838963 -0.759364
thorax -1.47652 0.281486 -1.75001
lowerneck -1.17479 -1.85646 -0.285498
upperneck 0.543865 -2.51286 3.14944
head 0.405697 -1.24632 0.990733
rclavicle -2.00276e-014 2.18663e-015
rhumerus -7.20419 -24.7615 -1.04374
rradius 21.0007
rwrist 17.4003
rhand -8.1064 -45.3844
rfingers 7.12502
rthumb 17.8065 -74.5892
lclavicle -2.00276e-014 2.18663e-015
lhumerus 0.929716 10.1417 -1.62014
lradius 21.258
lwrist 11.9193
lhand -6.81341 -4.64343
lfingers 7.12502
lthumb 19.0503 24.4436
rfemur 7.63947 19.3114 12.5334
rtibia -3.83728
rfoot -30.7047 -31.6288
rtoes 7.08116
lfemur 6.02994 -10.0104 -6.70971
ltibia -3.53485
lfoot -28.9018 5.81618
ltoes 40.497
151
root 8.32974 17.9624 -27.7356 7.7085 -86.8374 -0.801755
lowerback -7.5094 0.797157 1.73005
upperback -5.55616 0.786091 -0.715904
thorax -1.496 0.258214 -1.65825
lowerneck -1.11886 -1.82347 -0.272088
upperneck 0.455177 -2.46573 3.11624
head 0.367691 -1.22419 0.979349
rclavicle -1.30452e-015 -4.47266e-015
rhumerus -7.15075 -24.6248 -1.0623
rradius 21.075
rwrist 17.2527
rhand -8.13224 -45.3362
rfingers 7.12502
rthumb 17.7816 -74.5433
lclavicle -1.30452e-015 -4.47266e-015
lhumerus 0.863593 10.5153 -1.59921
lradius 21.2137
lwrist 11.4359
lhand -6.81844 -4.66091
lfingers 7.12502
lthumb 19.0454 24.4266
rfemur 7.68094 19.4079 12.6068
rtibia -3.81666
rfoot -30.9571 -31.7254
rtoes 7.13335
lfemur 5.92934 -9.46217 -6.56043
ltibia -3.39848
lfoot -28.3629 5.7105
ltoes 39.9675
